# Blender v3.3.1 OBJ File: ''
# www.blender.org
o Crystal
v -0.326127 0.076978 0.064170
v -1.313829 1.953786 -0.418998
v -0.529813 -0.163411 -0.330513
v -1.584430 1.643914 -1.030379
v -0.043437 0.163411 -0.134364
v -0.922630 2.174250 -0.676824
v -0.247124 -0.076978 -0.529046
v -1.217650 1.838615 -1.270874
v -0.520046 -0.071369 -0.068507
v -1.730715 2.079400 -0.772594
v -0.053205 0.071369 -0.396369
v -1.138035 2.629684 -1.125567
v -1.117810 1.550931 -0.116366
v -1.496139 1.092497 -0.912817
v -0.944247 1.238721 -1.284564
v -0.565092 1.719926 -0.504542
v -0.762709 2.005061 -1.104767
v -1.650077 1.606689 -0.504165
vt 0.523117 0.719732
vt 0.334446 0.712692
vt 0.373628 0.560682
vt 0.206550 0.541237
vt 0.511782 0.254610
vt 0.670612 0.205940
vt 0.685969 0.379435
vt 0.830255 0.212000
vt 0.864867 0.357911
vt 0.881851 0.029169
vt 0.569371 0.001327
vt 0.188698 0.720583
vt 0.383154 0.891226
vt 0.057127 0.968141
vt 0.012285 0.695130
vt 0.998673 0.200438
vt 0.998673 0.829089
vt 0.910090 0.831039
vt 0.188026 0.059522
vt 0.274365 0.078807
vt 0.799642 0.847706
vt 0.717537 0.874855
vt 0.388824 0.084800
vt 0.477638 0.080118
vn -0.9673 -0.2140 -0.1358
vn -0.9681 -0.2105 -0.1357
vn -0.9736 -0.1846 -0.1345
vn -0.4791 -0.2247 -0.8485
vn -0.4802 -0.2273 -0.8472
vn -0.4924 -0.2562 -0.8318
vn 0.8176 0.5703 0.0801
vn 0.8154 0.5736 0.0779
vn 0.7773 0.6277 0.0423
vn 0.2711 0.5897 0.7608
vn 0.2723 0.5954 0.7559
vn 0.2856 0.6606 0.6943
vn -0.1639 0.7544 0.6356
vn -0.1642 0.7371 0.6556
vn -0.1643 0.6518 0.7404
vn -0.6266 0.2150 -0.7491
vn -0.6265 0.2154 -0.7491
vn -0.6323 0.2011 -0.7482
vn 0.2904 0.1495 -0.9452
vn 0.2910 0.1479 -0.9452
vn 0.2890 0.1533 -0.9450
vn -0.5394 0.3328 0.7735
vn -0.5407 0.3344 0.7719
vn -0.5341 0.3261 0.7800
vn -0.5827 -0.1914 0.7899
vn -0.4992 -0.1588 0.8518
vn -0.4773 -0.1503 0.8658
vn 0.6996 -0.0095 -0.7144
vn 0.6391 -0.0931 -0.7635
vn 0.6201 -0.1169 -0.7757
vn 0.4647 0.3492 0.8137
vn 0.9478 0.2849 -0.1428
vn 0.9436 0.2816 -0.1740
vn 0.9487 0.2857 -0.1357
vn -0.3322 -0.5958 -0.7312
vn -0.3338 -0.5957 -0.7305
vn -0.3316 -0.5958 -0.7315
vn -0.8215 -0.5210 0.2316
vn -0.8263 -0.4844 0.2874
vn -0.8197 -0.5302 0.2168
vn -0.9607 -0.2416 -0.1369
vn -0.4648 -0.1921 -0.8643
vn 0.8499 0.5145 0.1142
vn 0.2534 0.5109 0.8214
vn -0.1588 0.8564 0.4914
vn -0.6175 0.2366 -0.7501
vn 0.2924 0.1442 -0.9454
vn -0.5461 0.3413 0.7651
vn -0.5908 -0.1946 0.7830
vn 0.7054 -0.0008 -0.7088
vn 0.9432 0.2813 -0.1769
vn -0.3341 -0.5957 -0.7304
vn -0.8265 -0.4805 0.2932
s 1
f 18/1/1 4/2/2 14/3/3
f 4/2/4 15/4/5 14/3/6
f 17/5/7 6/6/8 16/7/9
f 16/7/10 2/8/11 13/9/12
f 10/10/13 6/6/14 12/11/15
f 8/12/16 10/13/17 12/14/18
f 8/12/19 17/15/20 15/4/21
f 2/8/22 18/16/23 13/9/24
f 13/9/25 9/17/26 1/18/27
f 15/4/28 11/19/29 7/20/30
f 16/7/31 1/18/31 5/21/31
f 11/22/32 16/7/33 5/21/34
f 3/23/35 15/4/36 7/20/37
f 9/24/38 14/3/39 3/23/40
f 18/1/1 10/13/41 4/2/2
f 4/2/4 8/12/42 15/4/5
f 17/5/7 12/11/43 6/6/8
f 16/7/10 6/6/44 2/8/11
f 10/10/13 2/8/45 6/6/14
f 8/12/16 4/2/46 10/13/17
f 8/12/19 12/14/47 17/15/20
f 2/8/22 10/10/48 18/16/23
f 13/9/25 18/16/49 9/17/26
f 15/4/28 17/15/50 11/19/29
f 16/7/31 13/9/31 1/18/31
f 11/22/32 17/5/51 16/7/33
f 3/23/35 14/3/52 15/4/36
f 9/24/38 18/1/53 14/3/39
o Crystal.001
v 0.159139 -0.048973 -0.058250
v 0.809303 1.450299 -1.225381
v -0.223892 0.183630 0.070471
v 0.236572 1.792183 -1.091450
v -0.006624 -0.183630 -0.308180
v 0.639127 1.286838 -1.641126
v -0.389656 0.048973 -0.179459
v 0.072519 1.635076 -1.471810
v 0.021615 0.111188 0.087516
v 0.662686 1.944999 -1.269204
v -0.252131 -0.111188 -0.325225
v 0.532924 1.745946 -2.048450
v 0.828399 1.072451 -0.899799
v 0.061871 1.523047 -0.673563
v -0.259595 1.248249 -1.139144
v 0.504296 0.809168 -1.388466
v 0.198675 1.257881 -1.727441
v 0.643398 1.652190 -0.855314
vt 0.523117 0.719732
vt 0.334446 0.712692
vt 0.373628 0.560682
vt 0.206550 0.541237
vt 0.511782 0.254610
vt 0.670612 0.205940
vt 0.685969 0.379435
vt 0.830255 0.212000
vt 0.864867 0.357911
vt 0.881851 0.029169
vt 0.569371 0.001327
vt 0.188698 0.720583
vt 0.383154 0.891226
vt 0.057127 0.968141
vt 0.012285 0.695130
vt 0.998673 0.200438
vt 0.998673 0.829089
vt 0.910090 0.831039
vt 0.188026 0.059522
vt 0.274365 0.078807
vt 0.799642 0.847706
vt 0.717537 0.874855
vt 0.388824 0.084800
vt 0.477638 0.080118
vn -0.0370 0.8303 0.5561
vn -0.0350 0.8320 0.5536
vn -0.0202 0.8444 0.5354
vn -0.7399 0.6679 0.0806
vn -0.7399 0.6675 0.0838
vn -0.7387 0.6635 0.1185
vn 0.1940 -0.5685 -0.7995
vn 0.1943 -0.5648 -0.8020
vn 0.1980 -0.5014 -0.8423
vn 0.8852 -0.3405 -0.3171
vn 0.8836 -0.3379 -0.3241
vn 0.8610 -0.3063 -0.4060
vn 0.9430 0.1375 -0.3031
vn 0.9514 0.1250 -0.2814
vn 0.9813 0.0669 -0.1805
vn -0.4105 0.8952 -0.1737
vn -0.4103 0.8952 -0.1741
vn -0.4155 0.8955 -0.1596
vn -0.7835 0.1471 -0.6037
vn -0.7844 0.1461 -0.6027
vn -0.7812 0.1495 -0.6061
vn 0.9232 0.2838 0.2590
vn 0.9229 0.2861 0.2577
vn 0.9244 0.2747 0.2646
vn 0.6866 0.1537 0.7106
vn 0.7394 0.0675 0.6699
vn 0.7512 0.0458 0.6584
vn -0.7440 -0.3462 -0.5715
vn -0.8153 -0.3007 -0.4948
vn -0.8339 -0.2869 -0.4715
vn 0.7746 -0.6037 -0.1885
vn -0.1607 -0.6868 -0.7088
vn -0.1881 -0.6724 -0.7159
vn -0.1545 -0.6900 -0.7072
vn -0.8515 0.3809 0.3604
vn -0.8506 0.3820 0.3613
vn -0.8519 0.3805 0.3600
vn 0.0955 0.4702 0.8774
vn 0.1618 0.4647 0.8706
vn 0.0781 0.4713 0.8785
vn -0.0529 0.8164 0.5751
vn -0.7400 0.6713 0.0419
vn 0.1893 -0.6268 -0.7558
vn 0.9011 -0.3721 -0.2226
vn 0.8699 0.2187 -0.4421
vn -0.4024 0.8943 -0.1958
vn -0.7866 0.1438 -0.6004
vn 0.9215 0.2954 0.2520
vn 0.6807 0.1624 0.7143
vn -0.7360 -0.3507 -0.5791
vn -0.1906 -0.6711 -0.7165
vn -0.8504 0.3823 0.3615
vn 0.1688 0.4640 0.8696
s 1
f 36/25/54 22/26/55 32/27/56
f 22/26/57 33/28/58 32/27/59
f 35/29/60 24/30/61 34/31/62
f 34/31/63 20/32/64 31/33/65
f 28/34/66 24/30/67 30/35/68
f 26/36/69 28/37/70 30/38/71
f 26/36/72 35/39/73 33/28/74
f 20/32/75 36/40/76 31/33/77
f 31/33/78 27/41/79 19/42/80
f 33/28/81 29/43/82 25/44/83
f 34/31/84 19/42/84 23/45/84
f 29/46/85 34/31/86 23/45/87
f 21/47/88 33/28/89 25/44/90
f 27/48/91 32/27/92 21/47/93
f 36/25/54 28/37/94 22/26/55
f 22/26/57 26/36/95 33/28/58
f 35/29/60 30/35/96 24/30/61
f 34/31/63 24/30/97 20/32/64
f 28/34/66 20/32/98 24/30/67
f 26/36/69 22/26/99 28/37/70
f 26/36/72 30/38/100 35/39/73
f 20/32/75 28/34/101 36/40/76
f 31/33/78 36/40/102 27/41/79
f 33/28/81 35/39/103 29/43/82
f 34/31/84 31/33/84 19/42/84
f 29/46/85 35/29/104 34/31/86
f 21/47/88 32/27/105 33/28/89
f 27/48/91 36/25/106 32/27/92
o Crystal.002
v 0.147327 0.006550 -0.187221
v 1.156913 1.422894 -0.283721
v 0.345205 -0.139469 0.133879
v 1.433810 1.250471 0.208097
v -0.035957 0.139469 -0.013827
v 0.909555 1.682237 -0.075112
v 0.161921 -0.006550 0.307272
v 1.200652 1.484123 0.404915
v 0.305964 -0.109753 -0.083148
v 1.547270 1.528550 -0.088181
v 0.003284 0.109753 0.203199
v 1.185773 2.082934 0.159607
v 0.922580 1.084504 -0.418090
v 1.298670 0.814385 0.229237
v 0.936472 1.053843 0.559653
v 0.564221 1.344390 -0.079068
v 0.834548 1.639943 0.305422
v 1.402165 1.127923 -0.198389
vt 0.523117 0.719732
vt 0.334446 0.712692
vt 0.373628 0.560682
vt 0.206550 0.541237
vt 0.511782 0.254610
vt 0.670612 0.205940
vt 0.685969 0.379435
vt 0.830255 0.212000
vt 0.864867 0.357911
vt 0.881851 0.029169
vt 0.569371 0.001327
vt 0.188698 0.720583
vt 0.383154 0.891226
vt 0.057127 0.968141
vt 0.012285 0.695130
vt 0.998673 0.200438
vt 0.998673 0.829089
vt 0.910090 0.831039
vt 0.188026 0.059522
vt 0.274365 0.078807
vt 0.799642 0.847706
vt 0.717537 0.874855
vt 0.388824 0.084800
vt 0.477638 0.080118
vn 0.9462 -0.3227 0.0236
vn 0.9473 -0.3194 0.0225
vn 0.9553 -0.2953 0.0147
vn 0.6034 -0.1154 0.7891
vn 0.6039 -0.1184 0.7882
vn 0.6098 -0.1512 0.7780
vn -0.7505 0.6566 -0.0750
vn -0.7476 0.6600 -0.0740
vn -0.6978 0.7139 -0.0582
vn -0.3439 0.4557 -0.8210
vn -0.3435 0.4624 -0.8174
vn -0.3377 0.5400 -0.7709
vn 0.1223 0.5762 -0.8081
vn 0.1170 0.5553 -0.8234
vn 0.0916 0.4555 -0.8855
vn 0.7767 0.2680 0.5701
vn 0.7765 0.2684 0.5700
vn 0.7805 0.2535 0.5715
vn -0.0883 0.3803 0.9206
vn -0.0891 0.3789 0.9211
vn -0.0865 0.3837 0.9194
vn 0.4166 0.0845 -0.9052
vn 0.4183 0.0862 -0.9042
vn 0.4094 0.0774 -0.9090
vn 0.3983 -0.4325 -0.8089
vn 0.3087 -0.4012 -0.8624
vn 0.2856 -0.3927 -0.8742
vn -0.5487 0.2400 0.8008
vn -0.4895 0.1602 0.8572
vn -0.4713 0.1369 0.8713
vn -0.5691 0.2409 -0.7862
vn -0.8668 0.4452 0.2248
vn -0.8571 0.4477 0.2549
vn -0.8688 0.4446 0.2180
vn 0.3972 -0.4766 0.7842
vn 0.3987 -0.4770 0.7833
vn 0.3967 -0.4765 0.7846
vn 0.7009 -0.6730 -0.2362
vn 0.6989 -0.6497 -0.2989
vn 0.7009 -0.6786 -0.2196
vn 0.9369 -0.3481 0.0320
vn 0.5960 -0.0785 0.7992
vn -0.7946 0.6004 -0.0899
vn -0.3467 0.3645 -0.8643
vn 0.1557 0.7050 -0.6918
vn 0.7703 0.2905 0.5677
vn -0.0908 0.3756 0.9223
vn 0.4256 0.0935 -0.9001
vn 0.4072 -0.4354 -0.8029
vn -0.5545 0.2481 0.7944
vn -0.8562 0.4479 0.2577
vn 0.3990 -0.4771 0.7831
vn 0.6985 -0.6471 -0.3054
s 1
f 54/49/107 40/50/108 50/51/109
f 40/50/110 51/52/111 50/51/112
f 53/53/113 42/54/114 52/55/115
f 52/55/116 38/56/117 49/57/118
f 46/58/119 42/54/120 48/59/121
f 44/60/122 46/61/123 48/62/124
f 44/60/125 53/63/126 51/52/127
f 38/56/128 54/64/129 49/57/130
f 49/57/131 45/65/132 37/66/133
f 51/52/134 47/67/135 43/68/136
f 52/55/137 37/66/137 41/69/137
f 47/70/138 52/55/139 41/69/140
f 39/71/141 51/52/142 43/68/143
f 45/72/144 50/51/145 39/71/146
f 54/49/107 46/61/147 40/50/108
f 40/50/110 44/60/148 51/52/111
f 53/53/113 48/59/149 42/54/114
f 52/55/116 42/54/150 38/56/117
f 46/58/119 38/56/151 42/54/120
f 44/60/122 40/50/152 46/61/123
f 44/60/125 48/62/153 53/63/126
f 38/56/128 46/58/154 54/64/129
f 49/57/131 54/64/155 45/65/132
f 51/52/134 53/63/156 47/67/135
f 52/55/137 49/57/137 37/66/137
f 47/70/138 53/53/157 52/55/139
f 39/71/141 50/51/158 51/52/142
f 45/72/144 54/49/159 50/51/145
o Crystal.003
v -0.023168 -0.118000 0.173452
v -0.013359 0.984193 1.179843
v -0.076495 0.098997 -0.091419
v -0.055898 1.319719 0.803950
v 0.218184 -0.098997 0.140429
v 0.338693 1.027848 1.199692
v 0.164857 0.118000 -0.124442
v 0.271054 1.356911 0.815867
v -0.128443 -0.015692 0.051772
v -0.117184 1.354184 1.158513
v 0.270132 0.015692 -0.002763
v 0.454495 1.456838 1.329616
v -0.084341 0.651213 1.032488
v -0.167106 1.083788 0.511868
v 0.294161 1.106915 0.439443
v 0.387554 0.688369 0.967921
v 0.519958 1.144667 0.944264
v -0.260013 1.063812 0.964906
vt 0.523117 0.719732
vt 0.334446 0.712692
vt 0.373628 0.560682
vt 0.206550 0.541237
vt 0.511782 0.254610
vt 0.670612 0.205940
vt 0.685969 0.379435
vt 0.830255 0.212000
vt 0.864867 0.357911
vt 0.881851 0.029169
vt 0.569371 0.001327
vt 0.188698 0.720583
vt 0.383154 0.891226
vt 0.057127 0.968141
vt 0.012285 0.695130
vt 0.998673 0.200438
vt 0.998673 0.829089
vt 0.910090 0.831039
vt 0.188026 0.059522
vt 0.274365 0.078807
vt 0.799642 0.847706
vt 0.717537 0.874855
vt 0.388824 0.084800
vt 0.477638 0.080118
vn -0.8196 0.5473 -0.1692
vn -0.8192 0.5490 -0.1660
vn -0.8156 0.5609 -0.1425
vn -0.1038 0.8123 -0.5739
vn -0.1062 0.8109 -0.5754
vn -0.1328 0.7951 -0.5917
vn 0.8381 -0.2899 0.4621
vn 0.8383 -0.2859 0.4642
vn 0.8402 -0.2181 0.4965
vn 0.0906 -0.4959 0.8636
vn 0.0957 -0.4907 0.8660
vn 0.1555 -0.4273 0.8906
vn -0.1627 -0.1035 0.9812
vn -0.1775 -0.1248 0.9762
vn -0.2431 -0.2205 0.9446
vn -0.1235 0.9835 -0.1321
vn -0.1232 0.9836 -0.1318
vn -0.1332 0.9807 -0.1432
vn 0.7059 0.6072 -0.3648
vn 0.7059 0.6063 -0.3662
vn 0.7059 0.6093 -0.3613
vn -0.6775 -0.1614 0.7176
vn -0.6773 -0.1588 0.7184
vn -0.6781 -0.1717 0.7146
vn -0.8959 -0.3475 0.2766
vn -0.8425 -0.4271 0.3283
vn -0.8275 -0.4463 0.3407
vn 0.8934 0.1517 -0.4228
vn 0.8364 0.1899 -0.5141
vn 0.8180 0.2005 -0.5392
vn 0.1487 -0.7314 0.6655
vn 0.9490 -0.3011 0.0939
vn 0.9580 -0.2766 0.0758
vn 0.9468 -0.3066 0.0979
vn -0.1565 0.5047 -0.8490
vn -0.1582 0.5051 -0.8485
vn -0.1559 0.5046 -0.8492
vn -0.9613 0.0769 -0.2646
vn -0.9774 0.0514 -0.2049
vn -0.9563 0.0836 -0.2800
vn -0.8228 0.5342 -0.1941
vn -0.0740 0.8286 -0.5549
vn 0.8315 -0.3541 0.4281
vn 0.0230 -0.5614 0.8272
vn -0.0612 0.0403 0.9973
vn -0.1082 0.9875 -0.1147
vn 0.7059 0.6042 -0.3696
vn -0.6765 -0.1482 0.7214
vn -0.9008 -0.3391 0.2711
vn 0.8987 0.1476 -0.4130
vn 0.9588 -0.2744 0.0741
vn -0.1585 0.5051 -0.8484
vn -0.9789 0.0487 -0.1986
s 1
f 72/73/160 58/74/161 68/75/162
f 58/74/163 69/76/164 68/75/165
f 71/77/166 60/78/167 70/79/168
f 70/79/169 56/80/170 67/81/171
f 64/82/172 60/78/173 66/83/174
f 62/84/175 64/85/176 66/86/177
f 62/84/178 71/87/179 69/76/180
f 56/80/181 72/88/182 67/81/183
f 67/81/184 63/89/185 55/90/186
f 69/76/187 65/91/188 61/92/189
f 70/79/190 55/90/190 59/93/190
f 65/94/191 70/79/192 59/93/193
f 57/95/194 69/76/195 61/92/196
f 63/96/197 68/75/198 57/95/199
f 72/73/160 64/85/200 58/74/161
f 58/74/163 62/84/201 69/76/164
f 71/77/166 66/83/202 60/78/167
f 70/79/169 60/78/203 56/80/170
f 64/82/172 56/80/204 60/78/173
f 62/84/175 58/74/205 64/85/176
f 62/84/178 66/86/206 71/87/179
f 56/80/181 64/82/207 72/88/182
f 67/81/184 72/88/208 63/89/185
f 69/76/187 71/87/209 65/91/188
f 70/79/190 67/81/190 55/90/190
f 65/94/191 71/77/210 70/79/192
f 57/95/194 68/75/211 69/76/195
f 63/96/197 72/73/212 68/75/198
o Crystal.004
v -0.043946 0.087061 0.192424
v -1.041351 1.261219 1.005532
v -0.341280 -0.186636 0.176162
v -1.500944 0.894220 0.956824
v -0.121621 0.186636 -0.063266
v -1.156107 1.478200 0.671297
v -0.418955 -0.087061 -0.079528
v -1.605329 1.088631 0.642181
v -0.167314 -0.082220 0.267575
v -1.441623 1.228841 1.206807
v -0.295587 0.082220 -0.154678
v -1.630074 1.727547 0.742913
v -0.688498 1.030246 0.907448
v -1.284147 0.505005 0.854882
v -1.420021 0.684124 0.357733
v -0.840368 1.224936 0.407519
v -1.385517 1.329177 0.393119
v -1.133471 0.916694 1.170620
vt 0.523117 0.719732
vt 0.334446 0.712692
vt 0.373628 0.560682
vt 0.206550 0.541237
vt 0.511782 0.254610
vt 0.670612 0.205940
vt 0.685969 0.379435
vt 0.830255 0.212000
vt 0.864867 0.357911
vt 0.881851 0.029169
vt 0.569371 0.001327
vt 0.188698 0.720583
vt 0.383154 0.891226
vt 0.057127 0.968141
vt 0.012285 0.695130
vt 0.998673 0.200438
vt 0.998673 0.829089
vt 0.910090 0.831039
vt 0.188026 0.059522
vt 0.274365 0.078807
vt 0.799642 0.847706
vt 0.717537 0.874855
vt 0.388824 0.084800
vt 0.477638 0.080118
vn -0.4216 -0.4719 0.7743
vn -0.4226 -0.4687 0.7757
vn -0.4298 -0.4452 0.7856
vn -0.8835 -0.4663 0.0442
vn -0.8821 -0.4689 0.0453
vn -0.8657 -0.4973 0.0574
vn 0.2313 0.7653 -0.6007
vn 0.2278 0.7676 -0.5991
vn 0.1688 0.8041 -0.5700
vn 0.6411 0.7483 0.1701
vn 0.6358 0.7534 0.1680
vn 0.5695 0.8096 0.1423
vn 0.3310 0.7755 0.5376
vn 0.3530 0.7619 0.5430
vn 0.4499 0.6935 0.5628
vn -0.9534 -0.0690 0.2936
vn -0.9535 -0.0686 0.2935
vn -0.9513 -0.0836 0.2966
vn -0.7815 0.0725 -0.6197
vn -0.7809 0.0711 -0.6205
vn -0.7828 0.0758 -0.6177
vn 0.4204 0.2982 0.8569
vn 0.4181 0.2992 0.8577
vn 0.4298 0.2941 0.8537
vn 0.5458 -0.2108 0.8110
vn 0.6240 -0.1489 0.7671
vn 0.6424 -0.1331 0.7547
vn -0.3870 0.0603 -0.9201
vn -0.4330 -0.0424 -0.9004
vn -0.4452 -0.0718 -0.8926
vn 0.8169 0.5763 -0.0237
vn 0.1467 0.4921 -0.8581
vn 0.1178 0.4830 -0.8676
vn 0.1532 0.4941 -0.8558
vn -0.6353 -0.7652 -0.1043
vn -0.6352 -0.7655 -0.1026
vn -0.6353 -0.7651 -0.1050
vn 0.0360 -0.6717 0.7400
vn 0.0757 -0.6295 0.7733
vn 0.0255 -0.6822 0.7307
vn -0.4136 -0.4967 0.7630
vn -0.9004 -0.4340 0.0306
vn 0.2872 0.7255 -0.6255
vn 0.7083 0.6779 0.1969
vn 0.1784 0.8521 0.4919
vn -0.9563 -0.0462 0.2887
vn -0.7797 0.0679 -0.6225
vn 0.4084 0.3033 0.8609
vn 0.5374 -0.2170 0.8150
vn -0.3819 0.0710 -0.9215
vn 0.1151 0.4822 -0.8685
vn -0.6352 -0.7656 -0.1022
vn 0.0799 -0.6249 0.7766
s 1
f 90/97/213 76/98/214 86/99/215
f 76/98/216 87/100/217 86/99/218
f 89/101/219 78/102/220 88/103/221
f 88/103/222 74/104/223 85/105/224
f 82/106/225 78/102/226 84/107/227
f 80/108/228 82/109/229 84/110/230
f 80/108/231 89/111/232 87/100/233
f 74/104/234 90/112/235 85/105/236
f 85/105/237 81/113/238 73/114/239
f 87/100/240 83/115/241 79/116/242
f 88/103/243 73/114/243 77/117/243
f 83/118/244 88/103/245 77/117/246
f 75/119/247 87/100/248 79/116/249
f 81/120/250 86/99/251 75/119/252
f 90/97/213 82/109/253 76/98/214
f 76/98/216 80/108/254 87/100/217
f 89/101/219 84/107/255 78/102/220
f 88/103/222 78/102/256 74/104/223
f 82/106/225 74/104/257 78/102/226
f 80/108/228 76/98/258 82/109/229
f 80/108/231 84/110/259 89/111/232
f 74/104/234 82/106/260 90/112/235
f 85/105/237 90/112/261 81/113/238
f 87/100/240 89/111/262 83/115/241
f 88/103/243 85/105/243 73/114/243
f 83/118/244 89/101/263 88/103/245
f 75/119/247 86/99/264 87/100/248
f 81/120/250 90/97/265 86/99/251
